<svg width="43" height="44" viewBox="0 0 43 44" fill="none" xmlns="http://www.w3.org/2000/svg">
<path d="M42.1046 23.5925C41.5267 23.0146 40.7582 22.6963 39.941 22.6963C39.1237 22.6963 38.3552 23.0146 37.7773 23.5925L33.8339 27.5359C32.4917 28.8781 30.8412 29.7987 29.0421 30.2329C29.1866 29.8726 29.2672 29.4804 29.2672 29.0688C29.2672 27.7711 28.4861 26.6271 27.2774 26.1543L20.6454 23.5623C17.6242 22.3813 14.2006 22.7383 11.4885 24.5172L6.59341 27.7283L6.25744 27.3923C5.28985 26.4247 3.71583 26.4247 2.74824 27.3923L0.725695 29.4149C-0.241899 30.3824 -0.241899 31.9565 0.725695 32.9241L10.0783 42.2766C10.5469 42.7453 11.1702 43.0032 11.8329 43.0032C12.4956 43.0032 13.1188 42.7453 13.5875 42.2766L15.61 40.2541C16.0787 39.7854 16.3365 39.1622 16.3365 38.4995C16.3365 37.9015 16.1257 37.3362 15.7402 36.8868H27.2984C31.0621 36.8868 34.6016 35.4212 37.2633 32.7594L42.1046 27.9181C42.6825 27.3402 43.0008 26.5717 43.0008 25.7545C43.0008 24.9389 42.6825 24.1704 42.1046 23.5925ZM14.4224 39.0673L12.3998 41.0898C12.2486 41.241 12.047 41.325 11.8329 41.325C11.6187 41.325 11.4171 41.2418 11.2659 41.0898L1.91335 31.7364C1.6009 31.424 1.6009 30.915 1.91335 30.6025L3.93589 28.58C4.24834 28.2675 4.75734 28.2675 5.06979 28.58L14.4224 37.9325C14.5735 38.0837 14.6575 38.2853 14.6575 38.4995C14.6575 38.7145 14.5735 38.9161 14.4224 39.0673ZM40.917 26.7313L36.0756 31.5726C33.7314 33.9169 30.6144 35.2078 27.2993 35.2078H14.0729L7.80627 28.9411L12.4099 25.9216C14.6685 24.44 17.5183 24.1435 20.0347 25.1262L26.6668 27.7182C27.227 27.9374 27.589 28.4666 27.589 29.068C27.589 29.8676 26.9389 30.5177 26.1393 30.5177H18.1508C17.6871 30.5177 17.3109 30.894 17.3109 31.3576C17.3109 31.8212 17.6871 32.1975 18.1508 32.1975H26.6349C29.8031 32.1975 32.7823 30.9637 35.0224 28.7236L38.9658 24.7801C39.2262 24.5198 39.5731 24.3761 39.941 24.3761C40.3097 24.3761 40.6557 24.5198 40.9161 24.7801C41.1765 25.0405 41.3201 25.3874 41.3201 25.7553C41.321 26.124 41.1773 26.4709 40.917 26.7313Z" fill="#4B7FFB"/>
<path d="M21.5103 14.4061C20.6527 14.4061 19.9548 13.8081 19.9548 13.0723C19.9548 12.6086 19.5785 12.2324 19.1148 12.2324C18.6512 12.2324 18.2749 12.6086 18.2749 13.0723C18.2749 14.4632 19.2921 15.6366 20.6695 15.9818V16.2741C20.6695 16.7377 21.0458 17.114 21.5095 17.114C21.9731 17.114 22.3494 16.7377 22.3494 16.2741V15.9818C23.7269 15.6366 24.744 14.4632 24.744 13.0723C24.744 11.4109 23.2926 10.0586 21.5095 10.0586C20.6519 10.0586 19.9539 9.4606 19.9539 8.72483C19.9539 7.98905 20.6519 7.39102 21.5095 7.39102C22.367 7.39102 23.065 7.98905 23.065 8.72483C23.065 9.18846 23.4413 9.56475 23.9049 9.56475C24.3686 9.56475 24.7448 9.18846 24.7448 8.72483C24.7448 7.33391 23.7277 6.16053 22.3502 5.81532V5.52303C22.3502 5.05939 21.9739 4.68311 21.5103 4.68311C21.0467 4.68311 20.6704 5.05939 20.6704 5.52303V5.81532C19.2929 6.16053 18.2757 7.33391 18.2757 8.72483C18.2757 10.3862 19.7271 11.7385 21.5103 11.7385C22.3679 11.7385 23.0658 12.3365 23.0658 13.0723C23.0658 13.8081 22.3679 14.4061 21.5103 14.4061Z" fill="#4B7FFB"/>
<path d="M19.2984 20.8847C19.8864 21.4727 20.6683 21.7969 21.4999 21.7969C22.3314 21.7969 23.1134 21.4727 23.7013 20.8847L31.1825 13.4035C34.244 10.342 34.244 5.36123 31.1825 2.30054C29.8496 0.967581 28.0823 0.158733 26.2051 0.0218251C24.5488 -0.0982842 22.8992 0.30824 21.5007 1.1742C19.7201 0.0705408 17.5673 -0.277188 15.5061 0.225087C15.0551 0.335117 14.7788 0.788677 14.8888 1.23972C14.998 1.69076 15.4532 1.96709 15.9034 1.85706C17.6782 1.42534 19.5378 1.79239 21.0051 2.86497C21.3008 3.08083 21.7014 3.08083 21.9963 2.86497C24.4648 1.06081 27.8295 1.32287 29.9957 3.48904C32.4021 5.89542 32.4021 9.81032 29.9957 12.2167L22.5145 19.6979C22.244 19.9684 21.8837 20.1179 21.5007 20.1179C21.1177 20.1179 20.7574 19.9684 20.4869 19.6979L13.0057 12.2167C11.4695 10.6805 10.8588 8.50087 11.3737 6.38678C11.4837 5.93574 11.2066 5.48218 10.7564 5.37215C10.3053 5.26212 9.85177 5.53845 9.74174 5.98949C9.08744 8.6781 9.86353 11.4498 11.818 13.4044L19.2984 20.8847Z" fill="#4B7FFB"/>
<path d="M12.4107 3.73538C12.6325 3.73538 12.8483 3.64551 13.0046 3.48928C13.1616 3.33221 13.2507 3.11635 13.2507 2.89545C13.2507 2.67371 13.1616 2.45701 13.0046 2.30079C12.8483 2.14456 12.6325 2.05469 12.4107 2.05469C12.1898 2.05469 11.9731 2.14456 11.8169 2.30079C11.6607 2.45701 11.5708 2.67371 11.5708 2.89545C11.5708 3.11635 11.6607 3.33221 11.8169 3.48928C11.9731 3.64551 12.1898 3.73538 12.4107 3.73538Z" fill="#4B7FFB"/>
</svg>
