<svg width="65" height="65" viewBox="0 0 65 65" fill="none" xmlns="http://www.w3.org/2000/svg">
<circle cx="32.5" cy="32.5" r="30.5" stroke="#4B7FFB" stroke-width="4"/>
<path d="M49.0419 57.7121V44.6581C49.0419 42.5438 48.202 40.516 46.707 39.021C45.2119 37.5259 43.1842 36.686 41.0699 36.686H25.1258C23.0115 36.686 20.9838 37.5259 19.4888 39.021C17.9937 40.516 17.1538 42.5438 17.1538 44.6581V57.7121" stroke="#4B7FFB" stroke-width="4" stroke-linecap="round" stroke-linejoin="round"/>
<path d="M33.0978 28.7136C37.5007 28.7136 41.0698 25.1444 41.0698 20.7416C41.0698 16.3387 37.5007 12.7695 33.0978 12.7695C28.695 12.7695 25.1258 16.3387 25.1258 20.7416C25.1258 25.1444 28.695 28.7136 33.0978 28.7136Z" stroke="#4B7FFB" stroke-width="4" stroke-linecap="round" stroke-linejoin="round"/>
</svg>
