<svg width="61" height="61" viewBox="0 0 61 61" fill="none" xmlns="http://www.w3.org/2000/svg">
<path d="M30.4998 38.273C34.7925 38.273 38.2725 34.793 38.2725 30.5003C38.2725 26.2075 34.7925 22.7275 30.4998 22.7275C26.207 22.7275 22.7271 26.2075 22.7271 30.5003C22.7271 34.793 26.207 38.273 30.4998 38.273Z" stroke="#4B7FFB" stroke-width="4" stroke-linecap="round" stroke-linejoin="round"/>
<path d="M49.6727 38.2727C49.3278 39.0542 49.225 39.921 49.3774 40.7615C49.5297 41.602 49.9304 42.3776 50.5277 42.9882L50.6832 43.1436C51.165 43.6249 51.5472 44.1964 51.8079 44.8254C52.0687 45.4545 52.2029 46.1288 52.2029 46.8098C52.2029 47.4907 52.0687 48.165 51.8079 48.7941C51.5472 49.4232 51.165 49.9947 50.6832 50.4759C50.2019 50.9577 49.6304 51.3399 49.0014 51.6007C48.3723 51.8614 47.698 51.9957 47.017 51.9957C46.3361 51.9957 45.6618 51.8614 45.0327 51.6007C44.4037 51.3399 43.8322 50.9577 43.3509 50.4759L43.1955 50.3205C42.5848 49.7232 41.8093 49.3225 40.9688 49.1701C40.1283 49.0177 39.2615 49.1206 38.48 49.4655C37.7137 49.7939 37.0601 50.3392 36.5998 51.0343C36.1395 51.7295 35.8924 52.544 35.8891 53.3777V53.8182C35.8891 55.1925 35.3431 56.5105 34.3714 57.4823C33.3996 58.4541 32.0816 59 30.7073 59C29.333 59 28.015 58.4541 27.0432 57.4823C26.0714 56.5105 25.5255 55.1925 25.5255 53.8182V53.585C25.5054 52.7274 25.2278 51.8957 24.7288 51.198C24.2297 50.5003 23.5324 49.9688 22.7273 49.6727C21.9458 49.3278 21.079 49.225 20.2385 49.3774C19.398 49.5297 18.6224 49.9304 18.0118 50.5277L17.8564 50.6832C17.3751 51.165 16.8036 51.5472 16.1746 51.8079C15.5455 52.0687 14.8712 52.2029 14.1902 52.2029C13.5093 52.2029 12.835 52.0687 12.2059 51.8079C11.5768 51.5472 11.0053 51.165 10.5241 50.6832C10.0423 50.2019 9.6601 49.6304 9.39933 49.0014C9.13856 48.3723 9.00433 47.698 9.00433 47.017C9.00433 46.3361 9.13856 45.6618 9.39933 45.0327C9.6601 44.4037 10.0423 43.8322 10.5241 43.3509L10.6795 43.1955C11.2768 42.5848 11.6775 41.8093 11.8299 40.9688C11.9823 40.1283 11.8794 39.2615 11.5345 38.48C11.2061 37.7137 10.6608 37.0601 9.96566 36.5998C9.27054 36.1395 8.45599 35.8924 7.62227 35.8891H7.18182C5.80751 35.8891 4.4895 35.3431 3.51772 34.3714C2.54594 33.3996 2 32.0816 2 30.7073C2 29.333 2.54594 28.015 3.51772 27.0432C4.4895 26.0714 5.80751 25.5255 7.18182 25.5255H7.415C8.27258 25.5054 9.10428 25.2278 9.802 24.7288C10.4997 24.2297 11.0312 23.5324 11.3273 22.7273C11.6722 21.9458 11.775 21.079 11.6226 20.2385C11.4703 19.398 11.0696 18.6224 10.4723 18.0118L10.3168 17.8564C9.83503 17.3751 9.45283 16.8036 9.19205 16.1746C8.93128 15.5455 8.79706 14.8712 8.79706 14.1902C8.79706 13.5093 8.93128 12.835 9.19205 12.2059C9.45283 11.5768 9.83503 11.0053 10.3168 10.5241C10.7981 10.0423 11.3696 9.6601 11.9986 9.39933C12.6277 9.13856 13.302 9.00433 13.983 9.00433C14.6639 9.00433 15.3382 9.13856 15.9673 9.39933C16.5963 9.6601 17.1678 10.0423 17.6491 10.5241L17.8045 10.6795C18.4152 11.2768 19.1907 11.6775 20.0312 11.8299C20.8717 11.9823 21.7385 11.8794 22.52 11.5345H22.7273C23.4936 11.2061 24.1471 10.6608 24.6075 9.96566C25.0678 9.27054 25.3149 8.45599 25.3182 7.62227V7.18182C25.3182 5.80751 25.8641 4.4895 26.8359 3.51772C27.8077 2.54594 29.1257 2 30.5 2C31.8743 2 33.1923 2.54594 34.1641 3.51772C35.1359 4.4895 35.6818 5.80751 35.6818 7.18182V7.415C35.6851 8.24872 35.9322 9.06327 36.3925 9.75839C36.8529 10.4535 37.5064 10.9988 38.2727 11.3273C39.0542 11.6722 39.921 11.775 40.7615 11.6226C41.602 11.4703 42.3776 11.0696 42.9882 10.4723L43.1436 10.3168C43.6249 9.83503 44.1964 9.45283 44.8254 9.19205C45.4545 8.93128 46.1288 8.79706 46.8098 8.79706C47.4907 8.79706 48.165 8.93128 48.7941 9.19205C49.4232 9.45283 49.9947 9.83503 50.4759 10.3168C50.9577 10.7981 51.3399 11.3696 51.6007 11.9986C51.8614 12.6277 51.9957 13.302 51.9957 13.983C51.9957 14.6639 51.8614 15.3382 51.6007 15.9673C51.3399 16.5963 50.9577 17.1678 50.4759 17.6491L50.3205 17.8045C49.7232 18.4152 49.3225 19.1907 49.1701 20.0312C49.0177 20.8717 49.1206 21.7385 49.4655 22.52V22.7273C49.7939 23.4936 50.3392 24.1471 51.0343 24.6075C51.7295 25.0678 52.544 25.3149 53.3777 25.3182H53.8182C55.1925 25.3182 56.5105 25.8641 57.4823 26.8359C58.4541 27.8077 59 29.1257 59 30.5C59 31.8743 58.4541 33.1923 57.4823 34.1641C56.5105 35.1359 55.1925 35.6818 53.8182 35.6818H53.585C52.7513 35.6851 51.9367 35.9322 51.2416 36.3925C50.5465 36.8529 50.0012 37.5064 49.6727 38.2727V38.2727Z" stroke="#4B7FFB" stroke-width="4" stroke-linecap="round" stroke-linejoin="round"/>
</svg>
