<svg width="30" height="30" viewBox="0 0 30 30" fill="none" xmlns="http://www.w3.org/2000/svg">
<circle cx="15" cy="15" r="14" stroke="#7392B6" stroke-width="2"/>
<path d="M19.5455 28V20.5455C19.5455 19.5811 19.1623 18.6562 18.4804 17.9742C17.7984 17.2923 16.8735 16.9092 15.9091 16.9092H8.63636C7.67194 16.9092 6.74702 17.2923 6.06507 17.9742C5.38312 18.6562 5 19.5811 5 20.5455V24.5" stroke="#7392B6" stroke-width="2" stroke-linecap="round" stroke-linejoin="round"/>
<path d="M12.2727 13.2727C14.281 13.2727 15.9091 11.6447 15.9091 9.63636C15.9091 7.62806 14.281 6 12.2727 6C10.2644 6 8.63637 7.62806 8.63637 9.63636C8.63637 11.6447 10.2644 13.2727 12.2727 13.2727Z" stroke="#7392B6" stroke-width="2" stroke-linecap="round" stroke-linejoin="round"/>
<path d="M25 24.5V20.5453C24.9994 19.7396 24.7312 18.9569 24.2376 18.3201C23.744 17.6833 23.0529 17.2285 22.2727 17.0271" stroke="#7392B6" stroke-width="2" stroke-linecap="round" stroke-linejoin="round"/>
<path d="M18.6364 6.11816C19.4186 6.31844 20.1119 6.77335 20.6069 7.41117C21.102 8.049 21.3708 8.83346 21.3708 9.64089C21.3708 10.4483 21.102 11.2328 20.6069 11.8706C20.1119 12.5084 19.4186 12.9633 18.6364 13.1636" stroke="#7392B6" stroke-width="2" stroke-linecap="round" stroke-linejoin="round"/>
</svg>
