<svg width="30" height="30" viewBox="0 0 30 30" fill="none" xmlns="http://www.w3.org/2000/svg">
<circle cx="15" cy="15" r="14" stroke="#7392B6" stroke-width="2"/>
<path d="M15.5003 18.6038C14.8376 18.6038 14.2982 18.0746 14.2982 17.4235C14.2982 17.0132 14.0074 16.6803 13.6491 16.6803C13.2908 16.6803 13 17.0132 13 17.4235C13 18.6543 13.7861 19.6926 14.8506 19.9981V20.2568C14.8506 20.667 15.1414 21 15.4997 21C15.858 21 16.1488 20.667 16.1488 20.2568V19.9981C17.2133 19.6926 17.9994 18.6543 17.9994 17.4235C17.9994 15.9534 16.8777 14.7568 15.4997 14.7568C14.8369 14.7568 14.2975 14.2276 14.2975 13.5765C14.2975 12.9254 14.8369 12.3962 15.4997 12.3962C16.1624 12.3962 16.7018 12.9254 16.7018 13.5765C16.7018 13.9868 16.9926 14.3197 17.3509 14.3197C17.7092 14.3197 18 13.9868 18 13.5765C18 12.3457 17.2139 11.3074 16.1494 11.0019V10.7432C16.1494 10.333 15.8586 10 15.5003 10C15.142 10 14.8512 10.333 14.8512 10.7432V11.0019C13.7867 11.3074 13.0006 12.3457 13.0006 13.5765C13.0006 15.0466 14.1223 16.2432 15.5003 16.2432C16.1631 16.2432 16.7025 16.7724 16.7025 17.4235C16.7025 18.0746 16.1631 18.6038 15.5003 18.6038Z" fill="#7392B6"/>
<path d="M13.5739 24.2049C14.0891 24.7174 14.7744 25 15.503 25C16.2317 25 16.9169 24.7174 17.4321 24.2049L23.9879 17.6836C26.6707 15.0149 26.6707 10.6733 23.9879 8.00535C22.8198 6.84342 21.2712 6.13836 19.6262 6.01902C18.1748 5.91433 16.7292 6.26869 15.5038 7.02353C13.9434 6.06149 12.057 5.75838 10.2508 6.1962C9.85551 6.29212 9.61336 6.68748 9.70978 7.08064C9.80546 7.47381 10.2044 7.71468 10.5989 7.61877C12.1541 7.24245 13.7837 7.5624 15.0695 8.49735C15.3286 8.68551 15.6797 8.68551 15.938 8.49735C18.1012 6.92469 21.0497 7.15312 22.9479 9.04134C25.0566 11.1389 25.0566 14.5515 22.9479 16.6491L16.3921 23.1704C16.1551 23.4061 15.8394 23.5364 15.5038 23.5364C15.1681 23.5364 14.8524 23.4061 14.6154 23.1704L8.05961 16.6491C6.71343 15.31 6.17834 13.4101 6.62952 11.5673C6.72594 11.1741 6.48305 10.7787 6.08854 10.6828C5.6933 10.5869 5.29585 10.8278 5.19943 11.2209C4.62607 13.5646 5.30615 15.9806 7.01888 17.6844L13.5739 24.2049Z" fill="#7392B6"/>
<path d="M7 9C7.264 9 7.521 8.89305 7.707 8.70715C7.894 8.52024 8 8.26337 8 8.0005C8 7.73663 7.894 7.47876 7.707 7.29285C7.521 7.10695 7.264 7 7 7C6.737 7 6.479 7.10695 6.293 7.29285C6.107 7.47876 6 7.73663 6 8.0005C6 8.26337 6.107 8.52024 6.293 8.70715C6.479 8.89305 6.737 9 7 9Z" fill="#7392B6"/>
</svg>
