<svg width="57" height="58" viewBox="0 0 57 58" fill="none" xmlns="http://www.w3.org/2000/svg">
<path d="M55.812 31.7739C55.046 31.0079 54.0273 30.5859 52.944 30.5859C51.8607 30.5859 50.842 31.0079 50.076 31.7739L44.8487 37.0012C43.0695 38.7803 40.8818 40.0006 38.4969 40.5762C38.6884 40.0986 38.7953 39.5786 38.7953 39.0331C38.7953 37.3129 37.7599 35.7965 36.1577 35.1697L27.3666 31.7338C23.3618 30.1684 18.8237 30.6416 15.2287 32.9997L8.73994 37.2561L8.29459 36.8108C7.01199 35.5282 4.92554 35.5282 3.64294 36.8108L0.96195 39.4918C-0.32065 40.7744 -0.32065 42.8608 0.96195 44.1434L13.3593 56.5408C13.9806 57.162 14.8067 57.5038 15.6851 57.5038C16.5636 57.5038 17.3897 57.162 18.011 56.5408L20.6919 53.8598C21.3132 53.2385 21.655 52.4124 21.655 51.534C21.655 50.7412 21.3756 49.9919 20.8645 49.3963H36.1856C41.1746 49.3963 45.8663 47.4535 49.3946 43.9252L55.812 37.5077C56.578 36.7418 57 35.723 57 34.6397C57 33.5586 56.578 32.5399 55.812 31.7739ZM19.1176 52.2866L16.4367 54.9676C16.2362 55.168 15.969 55.2793 15.6851 55.2793C15.4012 55.2793 15.134 55.1691 14.9336 54.9676L2.53625 42.5691C2.12208 42.1549 2.12208 41.4802 2.53625 41.0661L5.21724 38.3851C5.63142 37.9709 6.30612 37.9709 6.72029 38.3851L19.1176 50.7824C19.3181 50.9828 19.4294 51.2501 19.4294 51.534C19.4294 51.819 19.3181 52.0862 19.1176 52.2866ZM54.2377 35.9346L47.8203 42.352C44.7129 45.4594 40.5812 47.1707 36.1867 47.1707H18.6545L10.3476 38.8638L16.45 34.8613C19.4439 32.8973 23.2215 32.5043 26.5572 33.8069L35.3483 37.2428C36.0909 37.5334 36.5708 38.2348 36.5708 39.0319C36.5708 40.0919 35.7091 40.9536 34.6491 40.9536H24.0599C23.4453 40.9536 22.9465 41.4524 22.9465 42.067C22.9465 42.6816 23.4453 43.1804 24.0599 43.1804H35.306C39.5056 43.1804 43.4548 41.5448 46.4241 38.5755L51.6514 33.3482C51.9965 33.0031 52.4563 32.8127 52.944 32.8127C53.4328 32.8127 53.8915 33.0031 54.2366 33.3482C54.5818 33.6933 54.7722 34.1532 54.7722 34.6408C54.7733 35.1296 54.5829 35.5894 54.2377 35.9346Z" fill="#4B7FFB"/>
<path d="M28.5134 19.5971C27.3766 19.5971 26.4514 18.8044 26.4514 17.8291C26.4514 17.2145 25.9526 16.7157 25.338 16.7157C24.7235 16.7157 24.2247 17.2145 24.2247 17.8291C24.2247 19.6728 25.573 21.2282 27.3989 21.6858V22.0732C27.3989 22.6878 27.8977 23.1866 28.5123 23.1866C29.1268 23.1866 29.6256 22.6878 29.6256 22.0732V21.6858C31.4515 21.2282 32.7998 19.6728 32.7998 17.8291C32.7998 15.6268 30.8759 13.8343 28.5123 13.8343C27.3755 13.8343 26.4503 13.0416 26.4503 12.0663C26.4503 11.091 27.3755 10.2982 28.5123 10.2982C29.649 10.2982 30.5742 11.091 30.5742 12.0663C30.5742 12.6808 31.073 13.1796 31.6876 13.1796C32.3022 13.1796 32.8009 12.6808 32.8009 12.0663C32.8009 10.2225 31.4527 8.66716 29.6267 8.20956V7.82211C29.6267 7.20753 29.1279 6.70874 28.5134 6.70874C27.8988 6.70874 27.4 7.20753 27.4 7.82211V8.20956C25.5741 8.66716 24.2258 10.2225 24.2258 12.0663C24.2258 14.2685 26.1497 16.061 28.5134 16.061C29.6501 16.061 30.5753 16.8538 30.5753 17.8291C30.5753 18.8044 29.6501 19.5971 28.5134 19.5971Z" fill="#4B7FFB"/>
<path d="M25.5807 28.1844C26.3601 28.9637 27.3966 29.3935 28.4989 29.3935C29.6011 29.3935 30.6376 28.9637 31.417 28.1844L41.3338 18.2676C45.392 14.2094 45.392 7.6071 41.3338 3.54999C39.5669 1.78307 37.2243 0.710898 34.7359 0.529419C32.5404 0.370207 30.3537 0.909077 28.5 2.05696C26.1396 0.593994 23.2861 0.13306 20.5539 0.798854C19.956 0.944705 19.5897 1.54592 19.7355 2.1438C19.8803 2.74168 20.4837 3.10798 21.0805 2.96213C23.433 2.38986 25.898 2.8764 27.8431 4.29817C28.235 4.58431 28.7661 4.58431 29.1569 4.29817C32.429 1.90666 36.8892 2.25403 39.7606 5.1254C42.9504 8.3152 42.9504 13.5046 39.7606 16.6944L29.8438 26.6112C29.4853 26.9697 29.0077 27.1679 28.5 27.1679C27.9923 27.1679 27.5146 26.9697 27.1561 26.6112L17.2394 16.6944C15.203 14.6581 14.3936 11.7689 15.0761 8.96652C15.2219 8.36865 14.8545 7.76743 14.2578 7.62157C13.6599 7.47572 13.0587 7.84202 12.9128 8.4399C12.0455 12.0038 13.0743 15.6779 15.6651 18.2687L25.5807 28.1844Z" fill="#4B7FFB"/>
<path d="M16.4511 5.45173C16.7451 5.45173 17.0312 5.3326 17.2383 5.12551C17.4465 4.91731 17.5645 4.63117 17.5645 4.33836C17.5645 4.04443 17.4465 3.75718 17.2383 3.55009C17.0312 3.34301 16.7451 3.22388 16.4511 3.22388C16.1583 3.22388 15.8711 3.34301 15.664 3.55009C15.4569 3.75718 15.3378 4.04443 15.3378 4.33836C15.3378 4.63117 15.4569 4.91731 15.664 5.12551C15.8711 5.3326 16.1583 5.45173 16.4511 5.45173Z" fill="#4B7FFB"/>
</svg>
