<svg width="50" height="50" viewBox="0 0 50 50" fill="none" xmlns="http://www.w3.org/2000/svg">
<circle cx="25" cy="25" r="24" stroke="#7392B6" stroke-width="2"/>
<path d="M25.8851 31.3764C24.7126 31.3764 23.7582 30.4401 23.7582 29.2882C23.7582 28.5623 23.2437 27.9732 22.6098 27.9732C21.9759 27.9732 21.4614 28.5623 21.4614 29.2882C21.4614 31.4658 22.8521 33.3028 24.7355 33.8433V34.3009C24.7355 35.0267 25.25 35.6158 25.8839 35.6158C26.5178 35.6158 27.0323 35.0267 27.0323 34.3009V33.8433C28.9157 33.3028 30.3064 31.4658 30.3064 29.2882C30.3064 26.6872 28.322 24.5701 25.8839 24.5701C24.7114 24.5701 23.7571 23.6338 23.7571 22.4819C23.7571 21.33 24.7114 20.3938 25.8839 20.3938C27.0564 20.3938 28.0108 21.33 28.0108 22.4819C28.0108 23.2078 28.5253 23.7969 29.1592 23.7969C29.7931 23.7969 30.3076 23.2078 30.3076 22.4819C30.3076 20.3043 28.9169 18.4673 27.0335 17.9269V17.4693C27.0335 16.7434 26.519 16.1543 25.8851 16.1543C25.2512 16.1543 24.7367 16.7434 24.7367 17.4693V17.9269C22.8533 18.4673 21.4626 20.3043 21.4626 22.4819C21.4626 25.0829 23.447 27.2 25.8851 27.2C27.0576 27.2 28.0119 28.1363 28.0119 29.2882C28.0119 30.4401 27.0576 31.3764 25.8851 31.3764Z" fill="#7392B6"/>
<path d="M22.4768 41.2858C23.3884 42.1925 24.6007 42.6925 25.8899 42.6925C27.1791 42.6925 28.3914 42.1925 29.3029 41.2858L40.9016 29.7482C45.6481 25.0267 45.6481 17.3453 40.9016 12.6251C38.835 10.5694 36.0952 9.32195 33.1848 9.11081C30.6168 8.92557 28.0593 9.55252 25.8912 10.888C23.1305 9.18594 19.793 8.64967 16.5974 9.42428C15.8981 9.59397 15.4697 10.2935 15.6403 10.9891C15.8096 11.6847 16.5154 12.1108 17.2134 11.9411C19.9649 11.2753 22.848 11.8414 25.1229 13.4955C25.5813 13.8284 26.2024 13.8284 26.6595 13.4955C30.4866 10.7131 35.7032 11.1173 39.0616 14.458C42.7924 18.1691 42.7924 24.2067 39.0616 27.9179L27.4629 39.4555C27.0436 39.8726 26.485 40.1031 25.8912 40.1031C25.2974 40.1031 24.7387 39.8726 24.3194 39.4555L12.7208 27.9179C10.3391 25.5487 9.39237 22.1873 10.1906 18.9269C10.3612 18.2313 9.93148 17.5318 9.2335 17.3621C8.53423 17.1924 7.83104 17.6186 7.66045 18.3142C6.64604 22.4606 7.84927 26.7352 10.8795 29.7495L22.4768 41.2858Z" fill="#7392B6"/>
<path d="M10.8464 14.3842C11.3135 14.3842 11.7681 14.195 12.0972 13.866C12.4281 13.5354 12.6156 13.0809 12.6156 12.6158C12.6156 12.149 12.4281 11.6927 12.0972 11.3638C11.7681 11.0349 11.3135 10.8457 10.8464 10.8457C10.3811 10.8457 9.92461 11.0349 9.59553 11.3638C9.26646 11.6927 9.07715 12.149 9.07715 12.6158C9.07715 13.0809 9.26646 13.5354 9.59553 13.866C9.92461 14.195 10.3811 14.3842 10.8464 14.3842Z" fill="#7392B6"/>
</svg>
