<svg width="59" height="59" viewBox="0 0 59 59" fill="none" xmlns="http://www.w3.org/2000/svg">
<g filter="url(#filter0_d)">
<circle cx="29.5" cy="28.5" r="21.5" fill="white"/>
</g>
<path d="M19 29C19 29 23 21 30 21C37 21 41 29 41 29C41 29 37 37 30 37C23 37 19 29 19 29Z" stroke="#4B7FFB" stroke-width="2" stroke-linecap="round" stroke-linejoin="round"/>
<path d="M30 32C31.6569 32 33 30.6569 33 29C33 27.3431 31.6569 26 30 26C28.3431 26 27 27.3431 27 29C27 30.6569 28.3431 32 30 32Z" stroke="#4B7FFB" stroke-width="2" stroke-linecap="round" stroke-linejoin="round"/>
<defs>
<filter id="filter0_d" x="0" y="0" width="59" height="59" filterUnits="userSpaceOnUse" color-interpolation-filters="sRGB">
<feFlood flood-opacity="0" result="BackgroundImageFix"/>
<feColorMatrix in="SourceAlpha" type="matrix" values="0 0 0 0 0 0 0 0 0 0 0 0 0 0 0 0 0 0 127 0"/>
<feOffset dy="1"/>
<feGaussianBlur stdDeviation="4"/>
<feColorMatrix type="matrix" values="0 0 0 0 0 0 0 0 0 0 0 0 0 0 0 0 0 0 0.04 0"/>
<feBlend mode="normal" in2="BackgroundImageFix" result="effect1_dropShadow"/>
<feBlend mode="normal" in="SourceGraphic" in2="effect1_dropShadow" result="shape"/>
</filter>
</defs>
</svg>
