<svg width="31" height="31" viewBox="0 0 31 31" fill="none" xmlns="http://www.w3.org/2000/svg">
<circle cx="15.5" cy="15.5" r="14" stroke="#7392B6" stroke-width="2"/>
<path d="M23.25 9V13.5H18.75" stroke="#7392B6" stroke-width="2" stroke-linecap="round" stroke-linejoin="round"/>
<path d="M21.3675 17.25C20.88 18.6299 19.9572 19.8141 18.7382 20.6239C17.5191 21.4337 16.0699 21.8254 14.6088 21.74C13.1478 21.6545 11.7541 21.0965 10.6378 20.15C9.52155 19.2036 8.7431 17.9199 8.41981 16.4926C8.09651 15.0652 8.24589 13.5714 8.84543 12.2363C9.44497 10.9012 10.4622 9.79716 11.7438 9.09049C13.0254 8.38382 14.502 8.11284 15.951 8.31837C17.4 8.5239 18.743 9.19481 19.7775 10.23L23.25 13.5" stroke="#7392B6" stroke-width="2" stroke-linecap="round" stroke-linejoin="round"/>
</svg>
